<?xml version="1.0" encoding="UTF-8" standalone="no"?><!DOCTYPE svg PUBLIC "-//W3C//DTD SVG 1.1//EN" "http://www.w3.org/Graphics/SVG/1.1/DTD/svg11.dtd"><svg width="100%" height="100%" viewBox="0 0 1115 1505" version="1.1" xmlns="http://www.w3.org/2000/svg" xmlns:xlink="http://www.w3.org/1999/xlink" xml:space="preserve" xmlns:serif="http://www.serif.com/" style="fill-rule:evenodd;clip-rule:evenodd;stroke-linecap:round;stroke-linejoin:round;stroke-miterlimit:1.5;"><rect id="Artboard1" x="0" y="0" width="1114.17" height="1504.22" style="fill:none;"/><clipPath id="_clip1"><rect x="0" y="0" width="1114.17" height="1504.22"/></clipPath><g clip-path="url(#_clip1)"><path d="M562.37,35.397l534.061,308.341l0,616.68l-534.061,308.341l-534.061,-308.341l-0,-616.68l534.061,-308.341Z" style="fill:#1c262b;"/><path d="M1039.87,1035.57l-586.683,-1000.17" style="fill:none;stroke:#fff;stroke-width:20.59px;"/><path d="M218.311,1233.71l432.018,-1314.91" style="fill:none;stroke:#fff;stroke-width:20.59px;"/><path d="M453.191,1268.76l608.25,-1004.55" style="fill:none;stroke:#fff;stroke-width:20.59px;"/><path d="M813.082,1163.62l332.27,-719.124" style="fill:none;stroke:#fff;stroke-width:20.59px;"/><path d="M708.96,1233.71l-705.64,-821.23" style="fill:none;stroke:#fff;stroke-width:20.59px;"/><path d="M148.894,1327.39l52.832,-0c11.914,-0 20.996,0.911 27.246,2.734c8.398,2.474 15.592,6.869 21.582,13.184c5.989,6.315 10.547,14.046 13.672,23.193c3.125,9.147 4.687,20.427 4.687,33.838c0,11.784 -1.465,21.94 -4.394,30.469c-3.581,10.417 -8.692,18.848 -15.332,25.293c-5.013,4.883 -11.784,8.691 -20.313,11.426c-6.38,2.018 -14.909,3.027 -25.586,3.027l-54.394,0l-0,-143.164Zm28.906,24.219l-0,94.824l21.582,-0c8.073,-0 13.9,-0.456 17.48,-1.367c4.688,-1.172 8.578,-3.158 11.67,-5.957c3.093,-2.8 5.615,-7.406 7.569,-13.819c1.953,-6.412 2.929,-15.153 2.929,-26.22c0,-11.068 -0.976,-19.564 -2.929,-25.489c-1.954,-5.924 -4.688,-10.547 -8.204,-13.867c-3.515,-3.32 -7.975,-5.566 -13.378,-6.738c-4.037,-0.912 -11.947,-1.367 -23.731,-1.367l-12.988,-0Z" style="fill:#1c262b;fill-rule:nonzero;"/><path d="M293.229,1327.39l28.907,-0l-0,77.539c-0,12.305 0.358,20.28 1.074,23.926c1.237,5.859 4.183,10.563 8.838,14.111c4.655,3.548 11.019,5.322 19.092,5.322c8.203,0 14.388,-1.676 18.554,-5.029c4.167,-3.353 6.674,-7.471 7.52,-12.353c0.846,-4.883 1.269,-12.989 1.269,-24.317l0,-79.199l28.907,-0l-0,75.195c-0,17.188 -0.782,29.33 -2.344,36.426c-1.563,7.096 -4.443,13.086 -8.643,17.969c-4.199,4.883 -9.814,8.773 -16.845,11.67c-7.032,2.897 -16.211,4.345 -27.539,4.345c-13.672,0 -24.04,-1.578 -31.104,-4.736c-7.064,-3.157 -12.646,-7.259 -16.748,-12.305c-4.102,-5.045 -6.803,-10.335 -8.105,-15.869c-1.888,-8.203 -2.833,-20.312 -2.833,-36.328l0,-76.367Z" style="fill:#1c262b;fill-rule:nonzero;"/><path d="M504.46,1417.92l-0,-24.121l62.305,0l-0,57.031c-6.055,5.86 -14.828,11.019 -26.319,15.479c-11.491,4.46 -23.128,6.689 -34.912,6.689c-14.974,0 -28.027,-3.141 -39.16,-9.423c-11.133,-6.283 -19.499,-15.267 -25.098,-26.954c-5.599,-11.686 -8.398,-24.397 -8.398,-38.134c-0,-14.909 3.125,-28.158 9.375,-39.746c6.25,-11.589 15.397,-20.476 27.441,-26.661c9.18,-4.752 20.606,-7.128 34.278,-7.128c17.773,-0 31.657,3.727 41.65,11.181c9.994,7.455 16.423,17.757 19.287,30.908l-28.711,5.371c-2.018,-7.031 -5.81,-12.581 -11.377,-16.65c-5.566,-4.069 -12.516,-6.103 -20.849,-6.103c-12.631,-0 -22.673,4.003 -30.127,12.011c-7.455,8.008 -11.182,19.89 -11.182,35.645c0,16.992 3.776,29.736 11.328,38.232c7.552,8.496 17.448,12.744 29.688,12.744c6.054,0 12.125,-1.188 18.213,-3.564c6.087,-2.376 11.311,-5.257 15.673,-8.643l0,-18.164l-33.105,0Z" style="fill:#1c262b;fill-rule:nonzero;"/><path d="M586.101,1423.98l28.125,-2.734c1.692,9.44 5.127,16.373 10.302,20.8c5.176,4.427 12.159,6.641 20.948,6.641c9.309,0 16.324,-1.969 21.045,-5.908c4.72,-3.939 7.08,-8.545 7.08,-13.819c-0,-3.385 -0.993,-6.266 -2.979,-8.642c-1.986,-2.376 -5.452,-4.443 -10.4,-6.201c-3.386,-1.172 -11.101,-3.255 -23.145,-6.25c-15.495,-3.841 -26.367,-8.561 -32.617,-14.16c-8.789,-7.878 -13.184,-17.481 -13.184,-28.809c0,-7.292 2.067,-14.111 6.202,-20.459c4.134,-6.348 10.091,-11.182 17.871,-14.502c7.78,-3.32 17.171,-4.98 28.173,-4.98c17.969,-0 31.495,3.938 40.577,11.816c9.082,7.878 13.851,18.392 14.306,31.543l-28.906,1.269c-1.237,-7.356 -3.89,-12.646 -7.959,-15.869c-4.069,-3.222 -10.172,-4.834 -18.311,-4.834c-8.398,0 -14.973,1.726 -19.726,5.176c-3.06,2.214 -4.59,5.176 -4.59,8.887c0,3.385 1.432,6.282 4.297,8.691c3.646,3.06 12.5,6.25 26.562,9.571c14.063,3.32 24.463,6.754 31.202,10.302c6.738,3.548 12.011,8.399 15.82,14.551c3.809,6.152 5.713,13.753 5.713,22.803c-0,8.203 -2.279,15.885 -6.836,23.047c-4.557,7.161 -11.003,12.483 -19.336,15.966c-8.333,3.484 -18.717,5.225 -31.152,5.225c-18.099,0 -31.999,-4.183 -41.7,-12.549c-9.7,-8.366 -15.494,-20.556 -17.382,-36.572Z" style="fill:#1c262b;fill-rule:nonzero;"/><path d="M786.687,1437.55l27.343,4.59c-3.515,10.026 -9.065,17.66 -16.65,22.9c-7.585,5.241 -17.074,7.862 -28.467,7.862c-18.034,-0 -31.38,-5.892 -40.039,-17.676c-6.836,-9.44 -10.254,-21.354 -10.254,-35.742c0,-17.188 4.492,-30.648 13.477,-40.381c8.984,-9.733 20.345,-14.6 34.082,-14.6c15.429,0 27.604,5.095 36.523,15.284c8.919,10.188 13.184,25.797 12.793,46.826l-68.75,-0c0.195,8.138 2.409,14.469 6.641,18.994c4.232,4.525 9.505,6.787 15.82,6.787c4.297,-0 7.91,-1.172 10.84,-3.516c2.93,-2.343 5.143,-6.119 6.641,-11.328Zm1.562,-27.734c-0.195,-7.943 -2.246,-13.981 -6.152,-18.115c-3.907,-4.135 -8.659,-6.202 -14.258,-6.202c-5.99,0 -10.938,2.181 -14.844,6.543c-3.906,4.362 -5.827,10.287 -5.762,17.774l41.016,-0Z" style="fill:#1c262b;fill-rule:nonzero;"/><path d="M837.858,1352.79l0,-25.391l27.442,-0l-0,25.391l-27.442,-0Zm0,117.773l0,-103.711l27.442,0l-0,103.711l-27.442,0Z" style="fill:#1c262b;fill-rule:nonzero;"/><path d="M883.757,1440.97l27.539,-4.199c1.172,5.339 3.548,9.391 7.129,12.158c3.581,2.767 8.594,4.151 15.039,4.151c7.096,-0 12.435,-1.303 16.015,-3.907c2.409,-1.823 3.614,-4.264 3.614,-7.324c-0,-2.083 -0.651,-3.809 -1.953,-5.176c-1.368,-1.302 -4.427,-2.506 -9.18,-3.613c-22.135,-4.883 -36.165,-9.342 -42.09,-13.379c-8.203,-5.599 -12.305,-13.379 -12.305,-23.34c0,-8.984 3.549,-16.536 10.645,-22.656c7.096,-6.12 18.099,-9.18 33.008,-9.18c14.192,0 24.739,2.312 31.64,6.934c6.901,4.622 11.654,11.458 14.258,20.508l-25.879,4.785c-1.106,-4.037 -3.206,-7.129 -6.299,-9.277c-3.092,-2.149 -7.503,-3.223 -13.232,-3.223c-7.227,-0 -12.402,1.009 -15.527,3.027c-2.084,1.433 -3.125,3.288 -3.125,5.567c-0,1.953 0.911,3.613 2.734,4.98c2.474,1.823 11.019,4.395 25.635,7.715c14.616,3.32 24.821,7.389 30.615,12.207c5.729,4.883 8.594,11.686 8.594,20.41c-0,9.505 -3.972,17.676 -11.914,24.512c-7.943,6.836 -19.694,10.254 -35.254,10.254c-14.128,-0 -25.309,-2.865 -33.545,-8.594c-8.236,-5.729 -13.623,-13.509 -16.162,-23.34Z" style="fill:#1c262b;fill-rule:nonzero;"/></g></svg>